<mxfile host="app.diagrams.net" agent="Mozilla/5.0 (Windows NT 10.0; Win64; x64) AppleWebKit/537.36 (KHTML, like Gecko) Chrome/135.0.0.0 Safari/537.36" version="26.2.14">
  <diagram name="Page-1" id="74e2e168-ea6b-b213-b513-2b3c1d86103e">
    <mxGraphModel dx="1425" dy="761" grid="1" gridSize="10" guides="1" tooltips="1" connect="1" arrows="1" fold="1" page="1" pageScale="1" pageWidth="1100" pageHeight="850" background="none" math="0" shadow="0">
      <root>
        <mxCell id="0" />
        <mxCell id="1" parent="0" />
        <mxCell id="raayuFcF3J2i7BtaDoh6-7" value="" style="edgeStyle=orthogonalEdgeStyle;rounded=0;orthogonalLoop=1;jettySize=auto;html=1;" edge="1" parent="1" source="raayuFcF3J2i7BtaDoh6-1" target="raayuFcF3J2i7BtaDoh6-6">
          <mxGeometry relative="1" as="geometry" />
        </mxCell>
        <mxCell id="raayuFcF3J2i7BtaDoh6-1" value="Start" style="rounded=1;whiteSpace=wrap;html=1;" vertex="1" parent="1">
          <mxGeometry x="30" y="340" width="120" height="60" as="geometry" />
        </mxCell>
        <mxCell id="raayuFcF3J2i7BtaDoh6-9" value="" style="edgeStyle=orthogonalEdgeStyle;rounded=0;orthogonalLoop=1;jettySize=auto;html=1;" edge="1" parent="1" source="raayuFcF3J2i7BtaDoh6-6" target="raayuFcF3J2i7BtaDoh6-8">
          <mxGeometry relative="1" as="geometry" />
        </mxCell>
        <mxCell id="raayuFcF3J2i7BtaDoh6-6" value="Set a random number" style="rounded=0;whiteSpace=wrap;html=1;" vertex="1" parent="1">
          <mxGeometry x="210" y="340" width="120" height="60" as="geometry" />
        </mxCell>
        <mxCell id="raayuFcF3J2i7BtaDoh6-15" value="" style="edgeStyle=orthogonalEdgeStyle;rounded=0;orthogonalLoop=1;jettySize=auto;html=1;" edge="1" parent="1" source="raayuFcF3J2i7BtaDoh6-8" target="raayuFcF3J2i7BtaDoh6-14">
          <mxGeometry relative="1" as="geometry" />
        </mxCell>
        <mxCell id="raayuFcF3J2i7BtaDoh6-8" value="User picks a difficulty level" style="rounded=0;whiteSpace=wrap;html=1;shape=parallelogram;perimeter=parallelogramPerimeter;fixedSize=1;" vertex="1" parent="1">
          <mxGeometry x="390" y="340" width="120" height="60" as="geometry" />
        </mxCell>
        <mxCell id="raayuFcF3J2i7BtaDoh6-17" value="" style="edgeStyle=orthogonalEdgeStyle;rounded=0;orthogonalLoop=1;jettySize=auto;html=1;" edge="1" parent="1" source="raayuFcF3J2i7BtaDoh6-14" target="raayuFcF3J2i7BtaDoh6-16">
          <mxGeometry relative="1" as="geometry" />
        </mxCell>
        <mxCell id="raayuFcF3J2i7BtaDoh6-14" value="User guesses a number" style="rounded=0;whiteSpace=wrap;html=1;shape=parallelogram;perimeter=parallelogramPerimeter;fixedSize=1;" vertex="1" parent="1">
          <mxGeometry x="570" y="340" width="120" height="60" as="geometry" />
        </mxCell>
        <mxCell id="raayuFcF3J2i7BtaDoh6-19" value="Yes" style="edgeStyle=orthogonalEdgeStyle;rounded=0;orthogonalLoop=1;jettySize=auto;html=1;" edge="1" parent="1" source="raayuFcF3J2i7BtaDoh6-16" target="raayuFcF3J2i7BtaDoh6-18">
          <mxGeometry relative="1" as="geometry" />
        </mxCell>
        <mxCell id="raayuFcF3J2i7BtaDoh6-16" value="Number correct?" style="rhombus;whiteSpace=wrap;html=1;" vertex="1" parent="1">
          <mxGeometry x="590" y="490" width="80" height="80" as="geometry" />
        </mxCell>
        <mxCell id="raayuFcF3J2i7BtaDoh6-18" value="Win" style="rounded=1;whiteSpace=wrap;html=1;" vertex="1" parent="1">
          <mxGeometry x="360" y="500" width="120" height="60" as="geometry" />
        </mxCell>
        <mxCell id="raayuFcF3J2i7BtaDoh6-27" value="Yes" style="edgeStyle=orthogonalEdgeStyle;rounded=0;orthogonalLoop=1;jettySize=auto;html=1;" edge="1" parent="1" source="raayuFcF3J2i7BtaDoh6-22" target="raayuFcF3J2i7BtaDoh6-26">
          <mxGeometry relative="1" as="geometry" />
        </mxCell>
        <mxCell id="raayuFcF3J2i7BtaDoh6-30" value="No" style="edgeStyle=orthogonalEdgeStyle;rounded=0;orthogonalLoop=1;jettySize=auto;html=1;" edge="1" parent="1" source="raayuFcF3J2i7BtaDoh6-22" target="raayuFcF3J2i7BtaDoh6-29">
          <mxGeometry relative="1" as="geometry" />
        </mxCell>
        <mxCell id="raayuFcF3J2i7BtaDoh6-22" value="Lives &amp;gt; 1?" style="rhombus;whiteSpace=wrap;html=1;" vertex="1" parent="1">
          <mxGeometry x="780" y="490" width="80" height="80" as="geometry" />
        </mxCell>
        <mxCell id="raayuFcF3J2i7BtaDoh6-28" value="" style="edgeStyle=orthogonalEdgeStyle;rounded=0;orthogonalLoop=1;jettySize=auto;html=1;" edge="1" parent="1" source="raayuFcF3J2i7BtaDoh6-26" target="raayuFcF3J2i7BtaDoh6-14">
          <mxGeometry relative="1" as="geometry" />
        </mxCell>
        <mxCell id="raayuFcF3J2i7BtaDoh6-26" value="-1 Life" style="rounded=0;whiteSpace=wrap;html=1;" vertex="1" parent="1">
          <mxGeometry x="760" y="340" width="120" height="60" as="geometry" />
        </mxCell>
        <mxCell id="raayuFcF3J2i7BtaDoh6-29" value="Lose" style="rounded=1;whiteSpace=wrap;html=1;" vertex="1" parent="1">
          <mxGeometry x="950" y="500" width="120" height="60" as="geometry" />
        </mxCell>
        <mxCell id="raayuFcF3J2i7BtaDoh6-31" value="No" style="edgeStyle=orthogonalEdgeStyle;rounded=0;orthogonalLoop=1;jettySize=auto;html=1;" edge="1" parent="1" source="raayuFcF3J2i7BtaDoh6-16" target="raayuFcF3J2i7BtaDoh6-32">
          <mxGeometry relative="1" as="geometry">
            <mxPoint x="590" y="540" as="sourcePoint" />
            <mxPoint x="830" y="540" as="targetPoint" />
          </mxGeometry>
        </mxCell>
        <mxCell id="raayuFcF3J2i7BtaDoh6-33" value="" style="edgeStyle=orthogonalEdgeStyle;rounded=0;orthogonalLoop=1;jettySize=auto;html=1;" edge="1" parent="1" source="raayuFcF3J2i7BtaDoh6-32" target="raayuFcF3J2i7BtaDoh6-22">
          <mxGeometry relative="1" as="geometry" />
        </mxCell>
        <mxCell id="raayuFcF3J2i7BtaDoh6-32" value="Tell higher or lower" style="whiteSpace=wrap;html=1;rounded=0;" vertex="1" parent="1">
          <mxGeometry x="590" y="650" width="80" height="80" as="geometry" />
        </mxCell>
      </root>
    </mxGraphModel>
  </diagram>
</mxfile>
